<?xml version="1.0" encoding="UTF-8"?>
<svg id="Capa_1" data-name="Capa 1" xmlns="http://www.w3.org/2000/svg" viewBox="0 0 1163.34 429.42">
  <polygon points="291.33 .01 291.33 373.22 209.95 373.22 209.95 81.35 186.31 81.35 186.31 373.22 0 373.22 0 104.94 81.38 104.94 81.38 291.88 104.98 291.88 104.98 .01 291.33 .01"/>
  <polygon points="506 192.79 506 372.29 449.97 372.29 449.97 248.83 402 248.83 402 372.29 346.01 372.29 346.01 192.79 506 192.79"/>
  <polygon points="575.11 0 575.11 179.51 519.12 179.51 519.12 55.99 471.17 55.99 471.17 179.51 415.18 179.51 415.18 0 575.11 0"/>
  <rect x="346.01" width="56" height="179.49"/>
  <rect x="765.35" width="56" height="179.49"/>
  <path d="m966.06.01h-133.71v179.45h134.04l26-26V26.39L966.06.01Zm-77.67,123.46V56h48v67.48h-48Z"/>
  <polygon points="648.34 56 648.34 123.47 752.34 123.47 752.34 179.51 592.35 179.51 592.35 .01 752.34 .01 752.34 56 648.34 56"/>
  <polygon points="579.21 248.83 579.21 254.09 631.56 254.09 631.56 310.08 579.21 310.08 579.21 316.3 683.17 316.3 683.17 372.29 523.22 372.29 523.22 192.79 683.17 192.79 683.17 248.83 579.21 248.83"/>
  <polygon points="860.38 192.79 860.38 248.83 808.38 248.83 808.38 372.29 752.39 372.29 752.39 248.83 700.39 248.83 700.39 192.79 860.38 192.79"/>
  <polygon points="1059.39 56 1059.39 61.31 1111.73 61.31 1111.73 117.3 1059.39 117.3 1059.39 123.47 1163.34 123.47 1163.34 179.51 1003.4 179.51 1003.4 .01 1163.34 .01 1163.34 56 1059.39 56"/>
  <rect x=".01" y="0" width="81.35" height="81.35" transform="translate(.01 81.36) rotate(-90)"/>
</svg>