<?xml version="1.0" encoding="utf-8"?>
<!-- Generator: Adobe Illustrator 26.0.0, SVG Export Plug-In . SVG Version: 6.00 Build 0)  -->
<svg version="1.1" id="Capa_1" xmlns="http://www.w3.org/2000/svg" xmlns:xlink="http://www.w3.org/1999/xlink" x="0px" y="0px"
	 viewBox="0 0 1627.5 700" style="enable-background:new 0 0 1627.5 700;" xml:space="preserve">
<style type="text/css">
	.st0{fill:#FFFFFF;}
	.st1{fill:#FFFFFF;stroke:#FFFFFF;stroke-miterlimit:10;}
</style>
<path class="st0" d="M812.39,20.58c0,15.64-0.97,39.1-2.9,70.37c-1.93,31.28-2.9,54.73-2.9,70.37c0,17.25,0.5,43.19,1.51,77.82
	c1.01,34.64,1.51,60.58,1.51,77.82c0,2.93-0.76,4.75-2.27,5.48c-0.34,0.15-2.52,0.44-6.56,0.88c-10.93,1.17-25.55,1.75-43.87,1.75
	c-24.54,0-40.18-0.59-46.9-1.75c-4.88-0.88-7.31-3.14-7.31-6.8c0,2.34,0.76-10.52,2.27-38.58c3.03-59.19,4.54-98.06,4.54-116.62
	c0-15.64-0.59-39.09-1.76-70.37c-1.18-31.27-1.77-54.73-1.77-70.37"/>
<path class="st0" d="M1014.62,314.77c0,3.95-1.74,6.21-5.22,6.8c-3.48,0.58-12.57,0.88-27.24,0.88c-15.67,0-25.38-0.44-29.11-1.32
	c-3.73-0.88-5.6-3.87-5.6-8.99c0-6.87,0.19-17.24,0.56-31.13c0.37-13.88,0.56-24.33,0.56-31.35c0-5.41-0.13-13.48-0.37-24.22
	c-0.25-10.74-0.37-18.82-0.37-24.22c0-20.02-7.4-30.03-22.2-30.03c-4.85,0-10.51,2.49-16.98,7.45
	c-6.97,5.56-10.45,11.04-10.45,16.44v118.38c0,4.82-1.93,7.53-5.78,8.11c-4.36,0.58-13.25,0.88-26.68,0.88
	c-14.55,0-24.01-0.44-28.36-1.32c-3.86-0.73-5.78-3.14-5.78-7.23c0-11.4,0.06-28.57,0.19-51.52c0.12-22.94,0.19-40.19,0.19-51.73
	c0-36.39-2.43-64.96-7.28-85.71c-0.25-1.32-0.37-2.41-0.37-3.29c0-2.34,0.93-3.95,2.8-4.82c7.84-1.02,18.29-2.63,31.35-4.82
	c19.78-4.53,30.91-6.8,33.4-6.8c1.37,0,2.43,4.93,3.17,14.8c0.75,9.86,1.8,14.8,3.17,14.8c-1.37,0,5.32-5.08,20.06-15.24
	c14.74-10.16,27.64-15.24,38.72-15.24c15.79,0,28.98,4.38,39.56,13.15c11.82,10.08,17.73,24.11,17.73,42.09v69.93
	c0,9.5,0.06,23.71,0.19,42.64C1014.55,291.06,1014.62,305.27,1014.62,314.77z"/>
<path class="st0" d="M1148.52,176.89c-0.11,0-3.51-1.17-10.18-3.51c-6.68-2.34-12.09-3.51-16.24-3.51c-9.99,0-17.95,3.91-23.9,11.73
	c-5.95,7.82-8.92,18.23-8.92,31.24c0,13.45,3.25,24,9.76,31.68c6.51,7.67,14.98,11.51,25.42,11.51c4.94,0,10.49-1.64,16.66-4.93
	c6.17-3.29,9.09-4.93,8.75-4.93c1.91,0,4.38,9.28,7.41,27.84c2.58,16.96,3.87,28.21,3.87,33.76c0,5.56-6.96,10.3-20.87,14.25
	c-10.77,3.07-19.47,4.6-26.09,4.6c-24.69,0-45.05-10.81-61.1-32.44c-16.05-21.63-24.07-48.59-24.07-80.89
	c0-32.01,8.05-58.93,24.15-80.78c16.1-21.85,36.44-32.77,61.01-32.77c16.72,0,31.42,4.68,44.1,14.03c2.92,2.05,4.38,4.02,4.38,5.92
	c0,1.9-1.68,10.52-5.05,25.87c-3.14,14.76-5.19,23.68-6.14,26.74C1150.51,175.35,1149.53,176.89,1148.52,176.89z"/>
<path class="st0" d="M1242.77,220.51c0,10.67,0.17,26.56,0.5,47.68c0.34,21.12,0.5,36.94,0.5,47.46c0,3.07-1.4,4.9-4.21,5.48
	c-3.82,0.88-12.4,1.32-25.75,1.32c-13.47,0-22.11-0.44-25.92-1.32c-2.47-0.58-3.98-1.53-4.54-2.85c-0.23-0.58-0.34-2.77-0.34-6.58
	c0-10.08,0.17-25.24,0.51-45.49c0.34-20.24,0.5-35.48,0.5-45.71c0-41.5-1.24-74.53-3.7-99.08c-0.23-2.34-0.34-3.87-0.34-4.6
	c0-2.92,1.51-4.38,4.54-4.38c3.14,0,7.94,0.44,14.39,1.32c6.45,0.88,11.3,1.32,14.56,1.32c3.25,0,8.13-0.36,14.64-1.1
	c6.51-0.73,11.39-1.1,14.64-1.1c2.69,0,4.04,1.46,4.04,4.38c0,0.59-0.11,1.97-0.34,4.17
	C1244.01,149.92,1242.77,182.95,1242.77,220.51z"/>
<path class="st0" d="M1214.16,19.49c8.75,0,16.33,3.44,22.72,10.3c6.84,7.31,10.27,16.59,10.27,27.84c0,25.43-11,38.14-32.99,38.14
	c-9.43,0-17.23-3.21-23.4-9.65c-6.73-7.01-10.1-16.51-10.1-28.5c0-11.4,3.48-20.75,10.44-28.06
	C1197.5,22.85,1205.18,19.49,1214.16,19.49"/>
<path class="st0" d="M1070.96,351.94c0,19.07-0.87,47.72-2.61,85.95c-1.74,38.23-2.61,66.96-2.61,86.2v165.37
	c0,4.52-2.66,6.78-7.98,6.78c-4.4,0-11.06,0.16-19.95,0.5c-8.9,0.33-15.55,0.5-19.95,0.5c-4.77,0-11.93-0.34-21.47-1
	c-9.54-0.67-16.7-1-21.47-1c-3.3,0-7.25-2.76-11.83-8.28c-13.21-16.23-42.93-52.2-89.17-107.91c-12.66-15.56-31.93-38.48-57.8-68.76
	c-0.74-1-2.11-2.01-4.13-3.01c-1.47,1.17-2.2,3.01-2.2,5.52c0,19.41,0.59,48.52,1.79,87.33c1.19,38.81,1.79,67.92,1.79,87.33
	c0,5.86-2.48,8.78-7.43,8.78H710.7c-5.32,0-7.98-2.59-7.98-7.78c0-18.07,0.96-45.33,2.89-81.81c1.93-36.47,2.89-63.82,2.89-82.06
	c0-19.24-0.87-48.01-2.61-86.32c-1.74-38.31-2.61-67-2.61-86.07c0-3.68,3.58-5.52,10.73-5.52c10.64,0,23.76-0.67,39.36-2.01
	c3.67-0.33,10.91-1.42,21.74-3.26c9.17-1.51,3.32,135.06,8.64,135.06c2.2,0,18.7-134.47,23.29-128.78l102.66,128.23
	c9.17,11.54,23.02,28.44,41.56,50.69c4.59,5.19,8.53,7.78,11.83,7.78c2.38,0,3.58-6.52,3.58-19.57c0-17.57-1.06-44-3.16-79.3
	c-2.11-35.3-3.17-61.81-3.17-79.55c0-6.19,1.93-9.28,5.78-9.28c11.01,0,27.61-0.42,49.81-1.25c22.2-0.84,38.81-1.26,49.82-1.26
	C1069.22,344.16,1070.96,346.76,1070.96,351.94z"/>
<path class="st0" d="M1355.34,618.19c0,7.19-9.55,73.02-11.8,77.04c-1.92,3.18-4.57,4.77-7.94,4.77c-1.44,0-3.85-0.25-7.22-0.75
	c-11.72-1.67-45.9-2.51-102.55-2.51c-12.36,0-30.73-0.09-55.13-0.25c-24.39-0.17-42.69-0.25-54.88-0.25c-5.3,0-7.94-2.42-7.94-7.28
	c0-18.73,1-46.88,3.01-84.44c2.01-37.56,3.01-65.7,3.01-84.44c0-19.07-0.96-54.62-2.89-106.65c-0.48-13.38-1.37-33.38-2.65-59.98
	l-0.24-3.51c-0.32-3.85,1.69-5.77,6.02-5.77c11.87,0,95.24,2.01,107.12,2.01c11.71,0,29.37-0.33,52.96-1c23.59-0.67,41.24-1,52.96-1
	c8.34,0,13.16,3.26,14.44,9.79c0.8,3.85,2.05,15.52,3.73,35.01c1.69,19.49,2.53,31.33,2.53,35.51c0,3.51-1.61,5.27-4.81,5.27
	c-0.96,0-2.65-0.08-5.06-0.25c-42.69-3.68-81.04-5.52-115.07-5.52c-8.51,0-13.72,2.09-15.65,6.27c-0.8,2.01-1.2,8.45-1.2,19.32
	c0,11.38,1.6,18.91,4.81,22.58c2.73,3.18,7.94,4.77,15.65,4.77c1.6,0,4.73-0.13,9.39-0.38c4.65-0.25,8.5-0.38,11.55-0.38
	c20.22,0,40.68-0.58,61.38-1.76c1.76-0.16,6.18-0.58,13.24-1.25c5.45-0.67,9.79-1,13-1c3.85,0,5.78,1.92,5.78,5.77
	c0-3.51-1.45,9.28-4.33,38.39c-1.29,13.39-1.93,26.77-1.93,40.15c0,3.35-2.33,5.02-6.98,5.02l-21.66-2.51
	c-9.15-1-30.01-1.51-62.59-1.51h-25.52c-6.58,0-10.44,1.68-11.56,5.02c-0.16,0.84-0.24,6.02-0.24,15.56
	c0,12.72,0.8,20.92,2.41,24.59c2.73,6.36,13,10.12,30.81,11.29c-0.32,0,56.29-0.79,73.06-2.39
	C1329.14,609.95,1355.34,612.17,1355.34,618.19z"/>
<path class="st0" d="M1621.82,420.95c0,3.35-1.77,5.02-5.3,5.02c-6.1,0-30.25-1.25-72.46-3.76c-0.96,42.33-1.44,71.86-1.44,88.58
	c0,19.74,0.76,49.43,2.29,89.08c1.52,39.65,2.29,69.35,2.29,89.08c0,3.18-0.72,5.19-2.17,6.02c-0.48,0.34-2.73,0.75-6.74,1.26
	c-9.63,1.34-23.75,2.01-42.37,2.01c-20.7,0-35.23-0.67-43.57-2.01c-4.49-0.84-6.74-3.43-6.74-7.78c0-19.74,0.8-49.35,2.41-88.83
	c1.6-39.48,2.41-69.09,2.41-88.83c0-13.05-0.64-42.16-1.93-87.33c-32.1,3.35-57.69,5.02-76.79,5.02c-2.57,0-3.85-0.84-3.85-2.51
	c0-2.17,1.12-8.61,3.37-19.32c2.57-11.71,4.01-18.82,4.33-21.33c0.48-7.86,1.04-15.72,1.69-23.59c1.12-12.55,3.05-18.82,5.78-18.82
	c0.32,0,1.45,0.09,3.37,0.25c26,3.51,64.43,5.27,115.31,5.27c14.44,0,41.08-1.59,79.92-4.77c20.86-1.67,31.37-2.51,31.53-2.51
	c3.21,0,5.06,0.21,5.54,0.63c0.48,0.42,0.8,2.05,0.96,4.89c0,4.52-0.16,10.79-0.48,18.82c-0.32,8.87-0.48,15.14-0.48,18.82
	c0,4.18,0.52,10.33,1.56,18.44C1621.3,410.87,1621.82,416.94,1621.82,420.95z"/>
<g>
	<polygon class="st1" points="481.13,340.89 321.28,241.38 201,319.89 357.93,417.58 	"/>
	<polygon class="st1" points="156.68,332.02 0,425.62 0,471.92 117.71,548.89 311.39,428.33 	"/>
	<polygon class="st1" points="318.91,700 628.32,507.39 628.32,365.02 201,626.6 	"/>
	<polygon class="st1" points="311.79,0 1.74,226.07 0,327.09 314.16,135.96 628.32,327.09 628.32,190.15 	"/>
</g>
<path class="st0" d="M1443.66,14.29c0-3.12-0.46,1.56-1.37,14.07c-1.26,15.77-2.23,35.95-2.92,60.52
	c-0.92,27.85-1.37,59.53-1.37,95.05c0,58.68,1.31,100.45,3.95,125.31c0.23,2.7,0.34,4.41,0.34,5.11c0,1.56-0.86,2.48-2.57,2.77
	c-4.12,0.71-19.28,1.07-45.48,1.07c-6.18,0-9.73-1.49-10.64-4.48c-0.23-5.4-0.46-10.8-0.69-16.2c-0.12-1.14-0.57-2.27-1.37-3.41
	c-0.69,0.43-1.54,1.28-2.57,2.56c-12.36,15.06-27.8,22.59-46.34,22.59c-24.14,0-43.48-10.51-58.01-31.54
	c-13.84-20.03-20.77-45.32-20.77-75.87c0-30.97,6.81-56.48,20.42-76.51c14.42-21.31,33.87-31.97,58.35-31.97
	c17.27,0,30.72,6.82,40.33,20.46c1.6,2.27,2.75,3.41,3.43,3.41c1.03,0,1.54-1.84,1.54-5.54c0-10.94-0.23-27.28-0.69-49.02
	c-0.46-21.74-0.69-38-0.69-48.8c0-4.12,0.92-6.46,2.75-7.03c7.32-0.43,17.39-1.28,30.21-2.56c22.88-3.55,33.01-5.33,30.38-5.33
	C1442.4,8.97,1443.66,10.74,1443.66,14.29z M1378.96,210.15c0-11.22-3.15-21.06-9.44-29.52c-6.29-8.45-13.9-12.68-22.83-12.68
	c-9.38,0-16.85,4.23-22.4,12.68c-5.55,8.45-8.32,18.58-8.32,30.37c0,11.51,2.8,21.24,8.41,29.2c5.72,8.52,13.16,12.79,22.31,12.79
	c9.15,0,16.82-4.26,23-12.79C1375.87,231.67,1378.96,221.66,1378.96,210.15z"/>
<path class="st0" d="M1626.26,200.98c0,14.35-3.72,22.52-11.16,24.51c-1.26,0.29-13.1,1.85-35.53,4.69
	c-13.5,1.85-33.64,4.05-60.41,6.61c1.6,9.24,6.46,16.27,14.59,21.1c6.63,3.98,14.19,5.97,22.65,5.97c10.18,0,20.42-3.41,30.72-10.23
	c4.35-3.41,8.69-6.82,13.04-10.23c2.4,1.42,6.44,8.67,12.1,21.74c5.66,13.07,8.5,21.39,8.5,24.93c0,1-0.86,2.63-2.57,4.9
	c-13.96,18.61-35.64,27.92-65.04,27.92c-27.23,0-49.2-9.87-65.9-29.62c-17.16-20.03-25.74-46.81-25.74-80.34
	c0-32.68,7.66-59.46,23-80.34c15.79-21.59,36.73-32.39,62.81-32.39c21.97,0,40.61,9.95,55.95,29.84
	C1618.59,149.91,1626.26,173.56,1626.26,200.98z M1566.19,187.98c0-8.81-2.52-16.55-7.55-23.23c-5.04-6.68-11.04-10.02-18.02-10.02
	c-7.21,0-13.16,3.77-17.85,11.29c-4.35,6.96-6.52,15.13-6.52,24.51c0,3.84,1.6,5.75,4.81,5.75c8.47,0,21.62-1.63,39.47-4.9
	C1564.31,190.68,1566.19,189.55,1566.19,187.98z"/>
</svg>
